<svg version="1.1" id="Layer_1" xmlns="http://www.w3.org/2000/svg" xmlns:xlink="http://www.w3.org/1999/xlink" x="0px" y="0px"
	 width="100%" viewBox="0 0 256 256" enable-background="new 0 0 256 256" xml:space="preserve">
<path fill="#000000" opacity="1.000000" stroke="none" 
	d="
M149.000000,257.000000 
	C99.333336,257.000000 50.166672,257.000000 1.000007,257.000000 
	C1.000004,171.666672 1.000004,86.333351 1.000002,1.000018 
	C86.333321,1.000012 171.666641,1.000012 257.000000,1.000006 
	C257.000000,86.333313 257.000000,171.666626 257.000000,256.999969 
	C221.166672,257.000000 185.333328,257.000000 149.000000,257.000000 
M132.041946,153.995834 
	C135.690384,153.940994 139.338837,153.886169 143.916580,153.974121 
	C178.153351,153.974121 212.390121,153.974121 246.694122,153.974121 
	C246.694122,135.069092 246.694122,116.692764 246.694122,98.282631 
	C183.047699,98.282631 119.705803,98.282631 56.004612,98.282631 
	C56.004612,116.175407 55.961224,133.789948 56.129387,151.402466 
	C56.138035,152.307816 57.959415,153.195862 59.225773,154.782715 
	C62.073822,159.436188 68.947777,159.022522 73.078423,153.999313 
	C88.337929,154.005692 103.597427,154.012085 118.983429,154.780746 
	C122.481369,159.646057 126.417198,159.400482 132.041946,153.995834 
M25.000107,146.401886 
	C25.000107,148.849075 25.000107,151.296249 25.000107,153.814011 
	C29.711000,153.009186 47.258553,121.069672 46.495396,114.961166 
	C44.107956,114.961166 41.667114,114.961166 39.066933,114.961166 
	C39.907440,111.427673 40.388344,108.195961 41.469570,105.179428 
	C42.706318,101.729004 41.186581,100.977028 38.255833,100.996826 
	C35.262112,101.017059 32.252419,101.194748 29.277996,100.954033 
	C24.897081,100.599503 21.372932,100.816269 21.573629,106.716125 
	C21.648607,108.920250 20.658024,111.143723 20.307297,113.382500 
	C19.360031,119.429077 18.495518,125.488625 17.511038,132.130920 
	C20.881647,132.130920 23.262426,132.130920 25.000162,132.130920 
	C25.000162,136.869232 25.000162,141.154282 25.000107,146.401886 
z"/>
<path fill="#FF7F04" opacity="1.000000" stroke="none" 
	d="
M118.856934,154.018463 
	C103.597427,154.012085 88.337929,154.005692 72.567932,153.586975 
	C72.057442,146.117126 72.057442,139.059616 72.057442,132.363037 
	C76.211517,131.017029 79.353470,129.998978 82.495422,128.980927 
	C82.407875,128.481735 82.320320,127.982559 82.232773,127.483376 
	C80.857300,127.358170 79.483414,127.210152 78.105927,127.113708 
	C76.504341,127.001579 74.899597,126.934631 72.936462,126.828644 
	C72.936462,124.823753 72.872292,123.191620 72.946968,121.565857 
	C73.405388,111.585449 72.373192,113.306137 81.314079,111.840919 
	C84.557426,111.309410 87.742760,110.423874 90.954559,109.699875 
	C90.881409,108.996223 90.808258,108.292580 90.735107,107.588928 
	C88.576843,107.588928 86.418541,107.597656 84.260330,107.587204 
	C78.981438,107.561630 73.644638,108.004234 68.438820,107.371925 
	C62.343433,106.631569 59.823124,107.912727 59.683643,114.038887 
	C59.415730,125.805931 59.528728,137.581375 59.432461,149.352921 
	C59.419533,150.933853 59.109352,152.512329 58.936821,154.091949 
	C57.959415,153.195862 56.138035,152.307816 56.129387,151.402466 
	C55.961224,133.789948 56.004612,116.175407 56.004612,98.282631 
	C119.705803,98.282631 183.047699,98.282631 246.694122,98.282631 
	C246.694122,116.692764 246.694122,135.069092 246.694122,153.974121 
	C212.390121,153.974121 178.153351,153.974121 143.457733,153.738556 
	C142.998886,153.503006 143.011200,153.174728 143.358780,153.084503 
	C147.245163,149.127762 150.783966,145.261230 154.468735,141.235229 
	C154.963333,143.034119 155.163193,145.464890 156.284485,147.346588 
	C157.345917,149.127853 159.299362,151.376602 160.998199,151.498352 
	C162.701187,151.620422 165.584671,149.742111 166.197861,148.089951 
	C168.828842,141.001266 170.813705,133.672791 173.034027,126.431709 
	C172.593857,126.252998 172.153687,126.074287 171.713501,125.895584 
	C169.316574,131.268112 166.919632,136.640625 163.969879,143.252274 
	C162.734772,138.274002 161.885101,134.582352 160.896164,130.928406 
	C159.556412,125.978294 157.019089,124.774040 152.657211,126.403542 
	C152.256668,130.645630 152.522919,134.821808 151.330673,138.528900 
	C150.083038,142.408142 147.433807,145.836609 145.397217,149.462112 
	C144.840057,149.255585 144.282883,149.049057 143.725723,148.842529 
	C143.725723,144.281418 143.842361,139.716492 143.693848,135.160217 
	C143.536453,130.331421 143.473709,125.683304 149.361389,123.578629 
	C147.982071,123.413689 146.602753,123.248756 145.432648,123.108841 
	C144.799622,121.209038 144.587860,119.268753 143.597855,117.885475 
	C141.776886,115.341171 139.053040,114.646507 138.185730,118.334320 
	C137.163467,122.680969 134.744019,125.292648 130.790649,127.640388 
	C130.232681,128.234650 129.694641,128.514969 129.641785,128.442291 
	C126.911888,124.690033 123.218109,123.730408 119.127312,125.430695 
	C115.063576,127.119751 113.047150,130.157944 112.339554,134.918198 
	C111.740982,138.944977 108.935997,142.643799 107.107483,146.487762 
	C106.358856,146.281204 105.610237,146.074661 104.861610,145.868118 
	C104.861610,141.000565 105.197441,136.097733 104.691750,131.283295 
	C104.496986,129.429062 102.388405,127.775826 101.151794,126.031006 
	C99.799370,127.061378 98.446938,128.091751 96.986000,129.204803 
	C94.324600,125.648636 90.626930,126.513245 87.112556,128.518784 
	C82.325577,131.250580 80.063530,135.913055 80.716995,141.094574 
	C81.076912,143.948441 83.195496,147.301163 85.551132,149.005249 
	C88.688965,151.275177 91.816559,148.931808 94.256104,146.406372 
	C95.096420,145.536469 95.892792,144.624115 96.781822,143.651764 
	C102.316689,154.551804 104.802795,154.002258 114.293320,140.046356 
	C116.914536,142.230453 119.521568,144.402740 121.811188,146.310532 
	C120.723335,149.148834 119.790138,151.583649 118.856934,154.018463 
M201.970108,137.260315 
	C202.385040,135.353897 202.838013,133.454849 203.208054,131.539749 
	C204.523544,124.731453 206.008392,117.945007 206.956665,111.084969 
	C207.168610,109.551666 205.611938,106.468620 204.603867,106.349632 
	C202.638672,106.117668 199.889648,106.912186 198.559158,108.317390 
	C196.840042,110.133057 195.696030,112.862083 195.184341,115.376862 
	C194.050980,120.946899 193.466965,126.628723 192.644852,132.362991 
	C190.249939,126.478569 187.133499,124.165886 182.565338,124.808044 
	C176.949280,125.597527 172.747437,130.585083 172.121048,137.205368 
	C171.579514,142.928833 174.179794,148.514450 178.221344,149.785477 
	C188.462799,153.006287 190.214951,144.802155 192.641937,138.166550 
	C194.819855,142.397980 196.270050,146.516678 198.796829,149.809143 
	C202.283981,154.353012 205.951172,153.983002 209.387390,149.521500 
	C210.613800,147.929184 211.749878,146.267288 213.186279,144.278397 
	C213.889267,146.243484 214.254044,147.518555 214.789963,148.717087 
	C217.113693,153.913834 222.878662,155.273193 226.272125,150.677567 
	C230.327393,145.185669 233.190933,138.813812 236.570663,132.823105 
	C235.990723,132.487305 235.410797,132.151505 234.830856,131.815720 
	C231.284149,137.674347 227.737442,143.532974 224.190735,149.391602 
	C223.731918,149.201492 223.273117,149.011398 222.814316,148.821304 
	C222.814316,143.585068 222.999207,138.340179 222.754883,133.115372 
	C222.564774,129.049942 223.349533,125.968719 227.863144,125.004723 
	C228.137512,124.946121 228.295776,124.343842 228.752274,123.592712 
	C226.944626,123.403854 225.563370,123.259552 224.816452,123.181511 
	C223.715683,120.810326 223.184418,118.586647 221.814941,117.177719 
	C221.144547,116.487999 217.837723,116.869530 217.568359,117.524559 
	C215.883087,121.622978 215.181686,126.269539 209.938477,128.030090 
	C211.279251,128.304474 212.620026,128.578857 214.244919,128.911392 
	C213.895386,136.043274 210.843292,141.815048 205.809296,148.420486 
	C204.258942,144.132629 203.163971,141.104202 201.970108,137.260315 
M238.940094,148.426300 
	C238.748566,147.033920 238.693375,145.592484 238.227997,144.298599 
	C238.152603,144.089020 235.810059,144.163651 235.309311,144.766403 
	C234.609634,145.608643 234.656281,147.070892 234.383591,148.267853 
	C235.744720,148.511902 237.105865,148.755966 238.940094,148.426300 
z"/>
<path fill="#FF9025" opacity="1.000000" stroke="none" 
	d="
M25.000134,145.920609 
	C25.000162,141.154282 25.000162,136.869232 25.000162,132.130920 
	C23.262426,132.130920 20.881647,132.130920 17.511038,132.130920 
	C18.495518,125.488625 19.360031,119.429077 20.307297,113.382500 
	C20.658024,111.143723 21.648607,108.920250 21.573629,106.716125 
	C21.372932,100.816269 24.897081,100.599503 29.277996,100.954033 
	C32.252419,101.194748 35.262112,101.017059 38.255833,100.996826 
	C41.186581,100.977028 42.706318,101.729004 41.469570,105.179428 
	C40.388344,108.195961 39.907440,111.427673 39.066933,114.961166 
	C41.667114,114.961166 44.107956,114.961166 46.495396,114.961166 
	C47.258553,121.069672 29.711000,153.009186 25.000107,153.814011 
	C25.000107,151.296249 25.000107,148.849075 25.000134,145.920609 
z"/>
<path fill="#FFF9F2" opacity="1.000000" stroke="none" 
	d="
M118.920181,154.399597 
	C119.790138,151.583649 120.723335,149.148834 121.811188,146.310532 
	C119.521568,144.402740 116.914536,142.230453 114.293320,140.046356 
	C104.802795,154.002258 102.316689,154.551804 96.781822,143.651764 
	C95.892792,144.624115 95.096420,145.536469 94.256104,146.406372 
	C91.816559,148.931808 88.688965,151.275177 85.551132,149.005249 
	C83.195496,147.301163 81.076912,143.948441 80.716995,141.094574 
	C80.063530,135.913055 82.325577,131.250580 87.112556,128.518784 
	C90.626930,126.513245 94.324600,125.648636 96.986000,129.204803 
	C98.446938,128.091751 99.799370,127.061378 101.151794,126.031006 
	C102.388405,127.775826 104.496986,129.429062 104.691750,131.283295 
	C105.197441,136.097733 104.861610,141.000565 104.861610,145.868118 
	C105.610237,146.074661 106.358856,146.281204 107.107483,146.487762 
	C108.935997,142.643799 111.740982,138.944977 112.339554,134.918198 
	C113.047150,130.157944 115.063576,127.119751 119.127312,125.430695 
	C123.218109,123.730408 126.911888,124.690033 129.641785,128.442291 
	C129.694641,128.514969 130.232681,128.234650 130.792053,127.788086 
	C131.039764,127.457146 131.046967,127.752472 130.583252,127.601692 
	C129.450409,129.603821 128.781296,131.756744 128.112183,133.909653 
	C127.725189,133.781586 127.338196,133.653534 126.951202,133.525467 
	C126.307884,131.658981 125.664574,129.792496 125.021255,127.926018 
	C124.336433,127.985512 123.651611,128.045013 122.966789,128.104507 
	C122.966789,129.808731 122.301552,131.972061 123.098251,133.126434 
	C125.064156,135.974869 125.751343,140.650375 131.115387,140.151474 
	C131.592712,140.633270 131.846649,140.927307 131.992615,141.581360 
	C131.635834,145.968369 131.387070,149.995361 131.138290,154.022369 
	C126.417198,159.400482 122.481369,159.646057 118.920181,154.399597 
M91.546265,145.257126 
	C98.180267,138.600693 98.737617,134.155533 93.225075,130.243744 
	C89.105156,133.464294 87.690926,137.891663 88.090820,142.882721 
	C88.170975,143.883194 89.922691,144.749725 91.546265,145.257126 
z"/>
<path fill="#FFFAF6" opacity="1.000000" stroke="none" 
	d="
M59.081299,154.437332 
	C59.109352,152.512329 59.419533,150.933853 59.432461,149.352921 
	C59.528728,137.581375 59.415730,125.805931 59.683643,114.038887 
	C59.823124,107.912727 62.343433,106.631569 68.438820,107.371925 
	C73.644638,108.004234 78.981438,107.561630 84.260330,107.587204 
	C86.418541,107.597656 88.576843,107.588928 90.735107,107.588928 
	C90.808258,108.292580 90.881409,108.996223 90.954559,109.699875 
	C87.742760,110.423874 84.557426,111.309410 81.314079,111.840919 
	C72.373192,113.306137 73.405388,111.585449 72.946968,121.565857 
	C72.872292,123.191620 72.936462,124.823753 72.936462,126.828644 
	C74.899597,126.934631 76.504341,127.001579 78.105927,127.113708 
	C79.483414,127.210152 80.857300,127.358170 82.232773,127.483376 
	C82.320320,127.982559 82.407875,128.481735 82.495422,128.980927 
	C79.353470,129.998978 76.211517,131.017029 72.057442,132.363037 
	C72.057442,139.059616 72.057442,146.117126 72.109398,153.589447 
	C68.947777,159.022522 62.073822,159.436188 59.081299,154.437332 
z"/>
<path fill="#FF8611" opacity="1.000000" stroke="none" 
	d="
M131.590118,154.009094 
	C131.387070,149.995361 131.635834,145.968369 132.286240,141.362549 
	C132.802109,140.663254 132.900284,140.518204 133.035461,140.429764 
	C133.152328,140.353317 133.311264,140.341156 133.451599,140.300568 
	C133.999496,142.453430 134.485916,144.624268 135.108612,146.755280 
	C136.257706,150.687790 138.030716,153.925720 143.011200,153.174728 
	C143.011200,153.174728 142.998886,153.503006 142.993073,153.667175 
	C139.338837,153.886169 135.690384,153.940994 131.590118,154.009094 
z"/>
<path fill="#FFF8F1" opacity="1.000000" stroke="none" 
	d="
M202.019547,137.668045 
	C203.163971,141.104202 204.258942,144.132629 205.809296,148.420486 
	C210.843292,141.815048 213.895386,136.043274 214.244919,128.911392 
	C212.620026,128.578857 211.279251,128.304474 209.938477,128.030090 
	C215.181686,126.269539 215.883087,121.622978 217.568359,117.524559 
	C217.837723,116.869530 221.144547,116.487999 221.814941,117.177719 
	C223.184418,118.586647 223.715683,120.810326 224.816452,123.181511 
	C225.563370,123.259552 226.944626,123.403854 228.752274,123.592712 
	C228.295776,124.343842 228.137512,124.946121 227.863144,125.004723 
	C223.349533,125.968719 222.564774,129.049942 222.754883,133.115372 
	C222.999207,138.340179 222.814316,143.585068 222.814316,148.821304 
	C223.273117,149.011398 223.731918,149.201492 224.190735,149.391602 
	C227.737442,143.532974 231.284149,137.674347 234.830856,131.815720 
	C235.410797,132.151505 235.990723,132.487305 236.570663,132.823105 
	C233.190933,138.813812 230.327393,145.185669 226.272125,150.677567 
	C222.878662,155.273193 217.113693,153.913834 214.789963,148.717087 
	C214.254044,147.518555 213.889267,146.243484 213.186279,144.278397 
	C211.749878,146.267288 210.613800,147.929184 209.387390,149.521500 
	C205.951172,153.983002 202.283981,154.353012 198.796829,149.809143 
	C196.270050,146.516678 194.819855,142.397980 192.641937,138.166550 
	C190.214951,144.802155 188.462799,153.006287 178.221344,149.785477 
	C174.179794,148.514450 171.579514,142.928833 172.121048,137.205368 
	C172.747437,130.585083 176.949280,125.597527 182.565338,124.808044 
	C187.133499,124.165886 190.249939,126.478569 192.644852,132.362991 
	C193.466965,126.628723 194.050980,120.946899 195.184341,115.376862 
	C195.696030,112.862083 196.840042,110.133057 198.559158,108.317390 
	C199.889648,106.912186 202.638672,106.117668 204.603867,106.349632 
	C205.611938,106.468620 207.168610,109.551666 206.956665,111.084969 
	C206.008392,117.945007 204.523544,124.731453 203.208054,131.539749 
	C202.838013,133.454849 202.385040,135.353897 202.019547,137.668045 
M181.700256,141.894745 
	C182.532486,143.313034 183.364700,144.731323 184.196930,146.149612 
	C185.795547,143.954666 187.394165,141.759720 189.006378,139.546112 
	C186.148926,137.645737 184.298294,136.414978 181.959061,134.859238 
	C181.839752,137.226242 181.741791,139.169983 181.700256,141.894745 
z"/>
<path fill="#FFF8F2" opacity="1.000000" stroke="none" 
	d="
M143.358780,153.084503 
	C138.030716,153.925720 136.257706,150.687790 135.108612,146.755280 
	C134.485916,144.624268 133.999496,142.453430 133.451599,140.300568 
	C133.311264,140.341156 133.152328,140.353317 133.035461,140.429764 
	C132.900284,140.518204 132.802109,140.663254 132.394226,141.002533 
	C131.846649,140.927307 131.592712,140.633270 131.226898,139.814453 
	C132.751648,136.029938 134.388275,132.770203 136.112747,129.335464 
	C133.662430,128.569763 132.354706,128.161118 131.046967,127.752472 
	C131.046967,127.752472 131.039764,127.457146 131.038361,127.309448 
	C134.744019,125.292648 137.163467,122.680969 138.185730,118.334320 
	C139.053040,114.646507 141.776886,115.341171 143.597855,117.885475 
	C144.587860,119.268753 144.799622,121.209038 145.432648,123.108841 
	C146.602753,123.248756 147.982071,123.413689 149.361389,123.578629 
	C143.473709,125.683304 143.536453,130.331421 143.693848,135.160217 
	C143.842361,139.716492 143.725723,144.281418 143.725723,148.842529 
	C144.282883,149.049057 144.840057,149.255585 145.397217,149.462112 
	C147.433807,145.836609 150.083038,142.408142 151.330673,138.528900 
	C152.522919,134.821808 152.256668,130.645630 152.657211,126.403542 
	C157.019089,124.774040 159.556412,125.978294 160.896164,130.928406 
	C161.885101,134.582352 162.734772,138.274002 163.969879,143.252274 
	C166.919632,136.640625 169.316574,131.268112 171.713501,125.895584 
	C172.153687,126.074287 172.593857,126.252998 173.034027,126.431709 
	C170.813705,133.672791 168.828842,141.001266 166.197861,148.089951 
	C165.584671,149.742111 162.701187,151.620422 160.998199,151.498352 
	C159.299362,151.376602 157.345917,149.127853 156.284485,147.346588 
	C155.163193,145.464890 154.963333,143.034119 154.468735,141.235229 
	C150.783966,145.261230 147.245163,149.127762 143.358780,153.084503 
z"/>
<path fill="#FFECDB" opacity="1.000000" stroke="none" 
	d="
M238.703552,148.713165 
	C237.105865,148.755966 235.744720,148.511902 234.383591,148.267853 
	C234.656281,147.070892 234.609634,145.608643 235.309311,144.766403 
	C235.810059,144.163651 238.152603,144.089020 238.227997,144.298599 
	C238.693375,145.592484 238.748566,147.033920 238.703552,148.713165 
z"/>
<path fill="#FF8108" opacity="1.000000" stroke="none" 
	d="
M91.224976,145.467575 
	C89.922691,144.749725 88.170975,143.883194 88.090820,142.882721 
	C87.690926,137.891663 89.105156,133.464294 93.225075,130.243744 
	C98.737617,134.155533 98.180267,138.600693 91.224976,145.467575 
z"/>
<path fill="#FF7F04" opacity="1.000000" stroke="none" 
	d="
M130.583252,127.601692 
	C132.354706,128.161118 133.662430,128.569763 136.112747,129.335464 
	C134.388275,132.770203 132.751648,136.029938 131.003525,139.626694 
	C125.751343,140.650375 125.064156,135.974869 123.098251,133.126434 
	C122.301552,131.972061 122.966789,129.808731 122.966789,128.104507 
	C123.651611,128.045013 124.336433,127.985512 125.021255,127.926018 
	C125.664574,129.792496 126.307884,131.658981 126.951202,133.525467 
	C127.338196,133.653534 127.725189,133.781586 128.112183,133.909653 
	C128.781296,131.756744 129.450409,129.603821 130.583252,127.601692 
z"/>
<path fill="#FF830C" opacity="1.000000" stroke="none" 
	d="
M181.672028,141.504227 
	C181.741791,139.169983 181.839752,137.226242 181.959061,134.859238 
	C184.298294,136.414978 186.148926,137.645737 189.006378,139.546112 
	C187.394165,141.759720 185.795547,143.954666 184.196930,146.149612 
	C183.364700,144.731323 182.532486,143.313034 181.672028,141.504227 
z"/>
</svg>