<svg version="1.1" id="Layer_1" xmlns="http://www.w3.org/2000/svg" xmlns:xlink="http://www.w3.org/1999/xlink" x="0px" y="0px"
	 width="100%" viewBox="0 0 300 300" enable-background="new 0 0 300 300" xml:space="preserve">
<path fill="#000000" opacity="1.000000" stroke="none" 
	d="
M164.000000,301.000000 
	C109.333344,301.000000 55.166687,301.000000 1.000022,301.000000 
	C1.000015,201.000031 1.000015,101.000053 1.000007,1.000062 
	C100.999962,1.000041 200.999924,1.000041 300.999908,1.000021 
	C300.999939,100.999939 300.999939,200.999878 300.999969,300.999908 
	C255.500000,301.000000 210.000000,301.000000 164.000000,301.000000 
M163.701523,152.900162 
	C164.341827,152.877060 164.982147,152.853943 166.596283,152.986252 
	C181.385178,152.937500 196.174072,152.888748 211.887543,152.998932 
	C215.936890,152.943924 219.986237,152.888931 224.681732,152.900589 
	C225.328644,152.877335 225.975540,152.854080 227.585510,152.986115 
	C231.335449,152.986115 235.085373,152.986115 238.759186,152.986115 
	C238.759186,138.315796 238.759186,124.379189 238.759186,110.273575 
	C191.806442,110.273575 145.093292,110.273575 98.001587,110.273575 
	C98.001587,123.002373 98.001465,135.462967 98.001831,147.923569 
	C98.001862,148.923233 97.754028,150.015625 98.078979,150.896011 
	C98.392174,151.744522 99.298576,152.374069 100.255463,153.816025 
	C102.971550,157.379364 107.813545,156.929733 111.396408,152.983444 
	C123.209312,152.989426 135.022217,152.995422 146.981186,153.787811 
	C150.043762,157.266891 152.619598,157.035339 157.082001,152.989853 
	C159.075333,152.937744 161.068665,152.885651 163.701523,152.900162 
M83.479004,134.017960 
	C85.174446,130.966522 86.869888,127.915077 88.888840,124.281387 
	C85.729721,124.085175 83.615410,123.953857 81.622581,123.830078 
	C82.162682,120.304947 82.685310,116.893845 83.243042,113.253616 
	C77.790947,113.253616 73.048401,113.253616 68.285843,113.253616 
	C67.043900,121.247780 65.840950,128.990936 64.621849,136.838089 
	C67.391708,136.979584 69.012215,137.062363 70.738411,137.150528 
	C70.433914,142.885422 70.144791,148.330704 69.844139,153.993103 
	C74.273010,152.882248 74.764061,152.126678 83.479004,134.017960 
M244.892929,180.037872 
	C243.652374,181.785645 242.411804,183.533432 241.285980,185.119553 
	C238.390701,180.127914 238.390701,180.127914 235.202179,180.622208 
	C236.072830,182.584564 236.784683,184.579178 237.810989,186.396194 
	C238.912125,188.345749 240.308868,190.128342 241.576630,191.983780 
	C242.730957,190.022797 243.880844,188.059189 245.045746,186.104523 
	C245.176987,185.884323 245.392944,185.714615 245.771072,185.301254 
	C246.227692,186.661804 246.401459,188.026306 247.096863,189.029114 
	C247.897583,190.183823 249.044098,191.506180 250.267395,191.795258 
	C250.917374,191.948837 252.404953,190.222321 252.889969,189.079468 
	C254.073593,186.290375 254.893356,183.346848 255.864044,180.466949 
	C251.085098,178.174408 251.818619,183.365097 250.335327,184.969940 
	C248.616211,183.128281 247.158447,181.566574 244.892929,180.037872 
M245.026306,218.189606 
	C246.714233,219.270950 248.402145,220.352295 250.188339,221.496597 
	C250.552414,216.577530 250.818115,212.987778 251.093719,209.263931 
	C246.461044,209.263931 242.386688,209.263931 238.231567,209.263931 
	C238.231567,213.296478 238.231567,217.061844 238.231567,220.827209 
	C238.613022,221.097427 238.994461,221.367645 239.375916,221.637863 
	C240.255127,220.611496 241.022934,219.449768 242.050690,218.603867 
	C242.801620,217.985809 243.894684,217.783478 245.026306,218.189606 
M138.999741,213.192383 
	C138.906189,211.804031 138.812653,210.415665 138.734436,209.254761 
	C134.207367,209.254761 130.264511,209.254761 126.223785,209.254761 
	C126.223785,213.273422 126.223785,217.034760 126.223785,220.796097 
	C126.598755,221.066544 126.973717,221.337006 127.348686,221.607452 
	C128.236038,220.604446 128.976440,219.372925 130.060501,218.675812 
	C130.829575,218.181290 132.239975,218.020645 133.052582,218.392227 
	C134.872253,219.224319 136.497513,220.481583 137.957047,221.409912 
	C138.401321,218.277832 138.700470,216.168915 138.999741,213.192383 
M92.004326,189.719025 
	C93.024002,186.505920 93.823074,187.800613 95.367020,189.561188 
	C96.532860,190.890579 98.621513,191.410706 100.187096,192.232071 
	C100.541748,187.563828 100.814079,183.979156 101.096313,180.264130 
	C96.456161,180.264130 92.384026,180.264130 88.230789,180.264130 
	C88.230789,184.293854 88.230789,188.056229 88.230789,192.664429 
	C89.835037,191.775223 90.912071,191.178238 92.004326,189.719025 
M168.656509,208.999832 
	C166.849350,209.471497 163.598129,209.721649 163.485916,210.453278 
	C163.009033,213.562241 163.392014,216.820053 163.668762,220.005478 
	C163.702164,220.389893 164.991379,220.924698 165.711517,220.945740 
	C169.112061,221.045166 172.517120,220.990067 175.629181,220.990067 
	C175.629181,218.209885 175.629181,216.144653 175.629181,214.179932 
	C172.508652,213.998825 169.767258,213.839722 167.025864,213.680618 
	C167.078125,213.116180 167.130386,212.551743 167.182648,211.987305 
	C169.943344,212.244659 172.704056,212.502014 175.717255,212.782898 
	C175.717255,211.676819 175.717255,210.478088 175.717255,208.999786 
	C173.524200,208.999786 171.552002,208.999786 168.656509,208.999832 
M63.999470,187.358826 
	C63.999470,184.951141 63.999470,182.543442 63.999470,180.191208 
	C50.417870,179.540436 50.047276,179.896500 51.557579,193.200119 
	C53.584911,191.176895 54.914749,189.849731 56.574242,188.193604 
	C57.382137,188.193604 58.998169,188.193604 59.787373,188.193604 
	C61.045406,189.796082 61.896030,190.879593 62.746658,191.963120 
	C63.164238,190.738068 63.581818,189.513016 63.999470,187.358826 
M91.991470,219.416046 
	C93.605713,218.328735 95.219955,217.241425 96.625771,216.294510 
	C98.072502,218.712952 98.860214,220.029739 99.647926,221.346512 
	C99.993576,221.169312 100.339233,220.992096 100.684891,220.814880 
	C100.684891,216.946243 100.684891,213.077606 100.684891,209.219238 
	C88.023369,208.995987 87.294296,206.329056 88.390892,221.112198 
	C89.581100,220.842072 90.745636,220.577774 91.991470,219.416046 
M24.000618,188.947449 
	C24.500154,189.999039 24.999691,191.050629 25.499229,192.102219 
	C25.934916,191.908478 26.370604,191.714737 26.806290,191.520996 
	C26.806290,187.750000 26.806290,183.979019 26.806290,178.724548 
	C23.799164,180.785217 21.626871,182.273804 20.195044,183.254974 
	C17.644865,181.888702 15.268686,180.615631 12.207436,178.975540 
	C12.207436,184.195908 12.207436,187.959839 12.207436,191.785553 
	C13.511509,191.785553 14.606061,191.785553 16.079826,191.785553 
	C16.079826,189.888367 16.079826,188.193466 16.079826,185.773529 
	C17.703016,187.233307 18.751520,188.176239 20.018515,189.315674 
	C21.127087,188.297775 22.077103,187.425461 23.027117,186.553146 
	C23.351282,187.085754 23.675447,187.618362 24.000618,188.947449 
M175.999481,187.429443 
	C175.999481,185.015518 175.999481,182.601593 175.999481,180.327835 
	C171.284698,180.327835 167.231079,180.327835 162.999237,180.327835 
	C162.999237,182.465607 162.999237,184.276413 162.999237,186.087219 
	C162.999237,188.000763 162.999237,189.914322 162.999237,191.999634 
	C166.638260,191.999634 169.628693,191.798401 172.579086,192.055893 
	C175.566177,192.316605 176.405426,191.042496 175.999481,187.429443 
M54.634209,209.000046 
	C51.987961,208.602325 50.665691,209.401764 50.946186,212.408432 
	C51.203800,215.169769 51.000919,217.974075 51.000919,220.759445 
	C51.460217,221.027924 51.919518,221.296402 52.378815,221.564880 
	C53.652184,220.128235 54.925556,218.691589 56.625771,216.773376 
	C58.512058,216.773376 61.106457,216.773376 63.730934,216.773376 
	C63.730934,214.081360 63.730934,211.693222 63.730934,208.999924 
	C60.843136,208.999924 58.215576,208.999924 54.634209,209.000046 
M209.464752,179.999985 
	C207.640381,180.001389 205.741226,179.694931 204.018143,180.113419 
	C202.886536,180.388275 201.358688,181.559875 201.121765,182.586777 
	C199.361511,190.216507 200.863235,192.005859 208.560577,192.000336 
	C210.309891,191.999084 212.059189,192.000168 213.998871,192.000168 
	C213.998871,188.550095 213.796707,185.726791 214.052750,182.945679 
	C214.338440,179.842636 212.549927,179.822266 209.464752,179.999985 
M211.165527,209.006149 
	C207.890030,209.006149 204.614548,209.006149 201.254944,209.006149 
	C201.254944,213.217987 201.254944,216.945786 201.254944,220.772125 
	C205.266235,220.772125 209.018463,220.772125 212.770676,220.772125 
	C212.928238,220.227249 213.085800,219.682373 213.243362,219.137497 
	C210.797104,218.566711 208.350845,217.995926 205.904587,217.425140 
	C207.072571,216.999451 208.244629,217.173599 209.332779,216.946228 
	C210.260498,216.752365 211.091736,216.096741 211.965637,215.645386 
	C211.024445,215.097061 210.142578,214.334732 209.127411,214.053391 
	C207.793488,213.683701 206.354614,213.692734 204.960876,213.538879 
	C205.014893,213.024399 205.068909,212.509918 205.122925,211.995438 
	C207.041763,211.995438 208.963287,212.059433 210.878754,211.979187 
	C213.258560,211.879501 213.924026,210.957611 211.165527,209.006149 
M286.000275,183.071899 
	C286.000275,183.869415 286.000275,184.666931 286.000275,185.609207 
	C282.056519,184.889816 281.651550,177.884872 276.239807,180.432297 
	C276.239807,184.305939 276.239807,188.067307 276.239807,191.987305 
	C277.597137,191.906479 278.706146,191.840439 280.181793,191.752563 
	C280.181793,189.824814 280.181793,188.132767 280.181793,186.451920 
	C283.906708,187.206619 283.561554,193.765854 288.816711,191.610794 
	C288.816711,187.850021 288.816711,184.075821 288.816711,180.301605 
	C288.509369,180.111832 288.202026,179.922058 287.894684,179.732285 
	C287.263702,180.570892 286.632690,181.409485 286.000275,183.071899 
M126.000267,185.540436 
	C126.000267,187.649826 126.000267,189.759216 126.000267,191.868607 
	C126.496773,192.127213 126.993279,192.385834 127.489784,192.644440 
	C128.698334,191.164032 129.906876,189.683640 130.929962,188.430420 
	C133.284409,189.712784 135.738007,191.049133 138.191589,192.385498 
	C138.498978,191.887024 138.806381,191.388550 139.113770,190.890076 
	C137.815491,189.439331 136.517197,187.988586 135.150681,186.461594 
	C136.486725,184.501602 137.803741,182.569519 139.120758,180.637436 
	C138.727219,180.185593 138.333679,179.733749 137.940125,179.281906 
	C135.453979,181.170380 132.967819,183.058853 130.248566,185.124390 
	C130.046158,183.227936 129.880844,181.679138 129.700729,179.991608 
	C128.277466,180.082962 127.223999,180.150574 126.000267,180.229126 
	C126.000267,181.968185 126.000267,183.284973 126.000267,185.540436 
z"/>
<path fill="#FF7F04" opacity="1.000000" stroke="none" 
	d="
M99.944366,153.099823 
	C99.298576,152.374069 98.392174,151.744522 98.078979,150.896011 
	C97.754028,150.015625 98.001862,148.923233 98.001831,147.923569 
	C98.001465,135.462967 98.001587,123.002373 98.001587,110.273575 
	C145.093292,110.273575 191.806442,110.273575 238.759186,110.273575 
	C238.759186,124.379189 238.759186,138.315796 238.759186,152.986115 
	C235.085373,152.986115 231.335449,152.986115 227.355408,152.659149 
	C230.667786,147.621719 234.210266,142.911255 237.752747,138.200790 
	C237.089233,137.740158 236.425720,137.279526 235.762207,136.818893 
	C233.221405,140.956482 230.680603,145.094086 228.139786,149.231674 
	C227.644867,148.969513 227.149948,148.707336 226.655014,148.445160 
	C228.623367,142.497574 223.244705,135.017715 230.458405,130.608994 
	C229.453186,129.134659 228.618622,127.712502 227.583160,126.455887 
	C226.784149,125.486267 225.846069,124.367165 224.746857,124.019447 
	C224.189621,123.843201 222.934067,125.084198 222.351410,125.930389 
	C220.751694,128.253647 219.340927,130.707016 217.930634,132.987244 
	C218.408661,133.612488 220.210175,135.067383 219.953186,135.781342 
	C218.468185,139.906967 216.497269,143.857697 214.244598,148.858383 
	C210.918243,143.215027 209.993591,139.287918 211.964569,134.554550 
	C213.533081,130.787735 214.323563,126.555313 214.635895,122.466667 
	C214.792740,120.413628 213.114853,118.220428 212.266693,116.090607 
	C210.269684,117.500717 207.116913,118.531952 206.505753,120.396332 
	C205.035202,124.882362 204.750137,129.757874 203.998520,134.478134 
	C203.781601,135.840347 203.604340,137.208878 203.408905,138.574509 
	C201.273865,132.809570 199.001160,130.244934 195.413712,130.310822 
	C191.459564,130.383438 187.941772,133.756531 186.855301,138.799103 
	C185.960022,142.954300 186.340591,147.312424 190.406464,149.294861 
	C198.730850,153.353607 200.489243,146.017899 202.415497,141.136383 
	C205.473953,145.082260 208.227524,148.634781 210.976471,152.350464 
	C210.971848,152.513641 210.962967,152.839996 210.962967,152.839996 
	C196.174072,152.888748 181.385178,152.937500 166.360748,152.659241 
	C168.845215,150.488281 171.565216,148.644318 174.285202,146.800354 
	C173.229523,146.274139 173.381180,147.760529 174.183228,148.679047 
	C175.166840,149.805481 176.643585,151.016678 178.002533,151.139954 
	C179.126648,151.241943 181.082092,150.074707 181.472916,149.024612 
	C183.353699,143.971237 184.828888,138.766922 186.448044,133.616180 
	C186.003128,133.440964 185.558197,133.265732 185.113281,133.090515 
	C183.557877,136.548279 182.002487,140.006042 180.087662,144.262833 
	C179.315125,141.763214 178.618958,140.100525 178.302795,138.368500 
	C177.579788,134.407547 176.725067,131.108658 171.484711,130.772339 
	C169.728134,130.659607 168.034866,127.852127 166.524414,126.094414 
	C165.019302,124.342911 163.013474,122.033936 161.839951,125.393295 
	C160.631927,128.851486 158.473969,130.932266 155.670898,133.013885 
	C155.250427,133.019058 155.082367,133.027435 154.637131,132.834457 
	C148.862488,128.683243 143.456528,130.986710 141.871048,137.515656 
	C141.060379,140.854065 139.159393,143.927704 137.751190,147.121017 
	C137.133133,146.995529 136.515091,146.870041 135.897049,146.744553 
	C135.897049,143.371170 135.960831,139.996307 135.881760,136.624786 
	C135.769760,131.850128 135.074310,131.470016 130.529892,133.294144 
	C130.070236,133.478653 129.318756,133.269714 128.833527,133.004242 
	C124.893005,130.848267 121.475349,132.786057 119.785950,135.691513 
	C118.124466,138.548965 117.229637,142.634415 117.831635,145.836334 
	C118.665520,150.271484 123.219582,151.045044 126.863739,148.050873 
	C127.857727,147.234177 128.731491,146.271149 129.725555,145.312485 
	C131.253815,148.043076 132.265427,152.565247 136.604462,150.250015 
	C139.410385,148.752808 141.219223,145.386917 143.568863,142.753052 
	C145.310104,144.193741 147.203079,145.759949 148.865250,147.135193 
	C148.114792,149.303711 147.474945,151.152557 146.835114,153.001404 
	C135.022217,152.995422 123.209312,152.989426 110.950958,152.468628 
	C110.505516,146.694717 110.505516,141.435654 110.505516,136.774261 
	C113.645439,135.475555 115.890434,134.546997 118.135429,133.618439 
	C118.035019,133.265533 117.934601,132.912628 117.834190,132.559723 
	C115.645332,132.345322 113.456482,132.130920 111.111771,131.901260 
	C111.059753,130.728745 110.993507,129.920578 110.992760,129.112350 
	C110.985481,121.230896 111.381470,120.767448 117.830818,120.591858 
	C120.156082,120.528549 122.455490,119.516220 126.058289,118.613266 
	C124.037392,117.736389 123.349899,117.186630 122.653893,117.175606 
	C116.730980,117.081856 110.806541,117.074463 104.882523,117.065384 
	C101.499062,117.060196 100.784271,119.356651 100.748703,122.079910 
	C100.634048,130.855835 100.595238,139.632797 100.465637,148.408447 
	C100.442505,149.974457 100.125610,151.536148 99.944366,153.099823 
z"/>
<path fill="#FFF6EE" opacity="1.000000" stroke="none" 
	d="
M210.981094,152.187302 
	C208.227524,148.634781 205.473953,145.082260 202.415497,141.136383 
	C200.489243,146.017899 198.730850,153.353607 190.406464,149.294861 
	C186.340591,147.312424 185.960022,142.954300 186.855301,138.799103 
	C187.941772,133.756531 191.459564,130.383438 195.413712,130.310822 
	C199.001160,130.244934 201.273865,132.809570 203.408905,138.574509 
	C203.604340,137.208878 203.781601,135.840347 203.998520,134.478134 
	C204.750137,129.757874 205.035202,124.882362 206.505753,120.396332 
	C207.116913,118.531952 210.269684,117.500717 212.266693,116.090607 
	C213.114853,118.220428 214.792740,120.413628 214.635895,122.466667 
	C214.323563,126.555313 213.533081,130.787735 211.964569,134.554550 
	C209.993591,139.287918 210.918243,143.215027 214.244598,148.858383 
	C216.497269,143.857697 218.468185,139.906967 219.953186,135.781342 
	C220.210175,135.067383 218.408661,133.612488 217.930634,132.987244 
	C219.340927,130.707016 220.751694,128.253647 222.351410,125.930389 
	C222.934067,125.084198 224.189621,123.843201 224.746857,124.019447 
	C225.846069,124.367165 226.784149,125.486267 227.583160,126.455887 
	C228.618622,127.712502 229.453186,129.134659 230.458405,130.608994 
	C223.244705,135.017715 228.623367,142.497574 226.655014,148.445160 
	C227.149948,148.707336 227.644867,148.969513 228.139786,149.231674 
	C230.680603,145.094086 233.221405,140.956482 235.762207,136.818893 
	C236.425720,137.279526 237.089233,137.740158 237.752747,138.200790 
	C234.210266,142.911255 230.667786,147.621719 226.873886,152.581512 
	C225.975540,152.854080 225.328644,152.877335 224.130188,152.621399 
	C222.060349,150.032318 220.542053,147.722427 219.710846,146.457855 
	C217.050018,148.204193 214.015564,150.195740 210.981094,152.187302 
M196.350952,139.999908 
	C195.596603,139.922714 194.842239,139.845535 194.087906,139.768356 
	C194.306442,142.216415 194.524994,144.664459 194.743546,147.112518 
	C195.305115,147.074677 195.866699,147.036835 196.428284,146.998993 
	C196.995682,144.873795 201.874222,143.400238 196.350952,139.999908 
z"/>
<path fill="#FF9025" opacity="1.000000" stroke="none" 
	d="
M83.268906,134.334869 
	C74.764061,152.126678 74.273010,152.882248 69.844139,153.993103 
	C70.144791,148.330704 70.433914,142.885422 70.738411,137.150528 
	C69.012215,137.062363 67.391708,136.979584 64.621849,136.838089 
	C65.840950,128.990936 67.043900,121.247780 68.285843,113.253616 
	C73.048401,113.253616 77.790947,113.253616 83.243042,113.253616 
	C82.685310,116.893845 82.162682,120.304947 81.622581,123.830078 
	C83.615410,123.953857 85.729721,124.085175 88.888840,124.281387 
	C86.869888,127.915077 85.174446,130.966522 83.268906,134.334869 
z"/>
<path fill="#FFF7F0" opacity="1.000000" stroke="none" 
	d="
M146.908142,153.394608 
	C147.474945,151.152557 148.114792,149.303711 148.865250,147.135193 
	C147.203079,145.759949 145.310104,144.193741 143.568863,142.753052 
	C141.219223,145.386917 139.410385,148.752808 136.604462,150.250015 
	C132.265427,152.565247 131.253815,148.043076 129.725555,145.312485 
	C128.731491,146.271149 127.857727,147.234177 126.863739,148.050873 
	C123.219582,151.045044 118.665520,150.271484 117.831635,145.836334 
	C117.229637,142.634415 118.124466,138.548965 119.785950,135.691513 
	C121.475349,132.786057 124.893005,130.848267 128.833527,133.004242 
	C129.318756,133.269714 130.070236,133.478653 130.529892,133.294144 
	C135.074310,131.470016 135.769760,131.850128 135.881760,136.624786 
	C135.960831,139.996307 135.897049,143.371170 135.897049,146.744553 
	C136.515091,146.870041 137.133133,146.995529 137.751190,147.121017 
	C139.159393,143.927704 141.060379,140.854065 141.871048,137.515656 
	C143.456528,130.986710 148.862488,128.683243 154.617188,133.229340 
	C154.662140,134.982941 154.449875,136.140305 154.034485,138.405243 
	C152.654449,135.879532 151.889893,134.480270 150.930847,132.725052 
	C148.975906,137.127365 151.123306,140.954498 156.345917,143.287903 
	C156.505219,146.722290 156.368362,149.839294 156.231522,152.956284 
	C152.619598,157.035339 150.043762,157.266891 146.908142,153.394608 
M126.759331,145.314011 
	C130.806168,139.204208 130.825500,138.166916 125.738853,134.101929 
	C124.696114,137.969574 123.451180,141.229248 123.031921,144.591858 
	C122.722382,147.074432 124.424133,147.239273 126.759331,145.314011 
z"/>
<path fill="#FFF9F3" opacity="1.000000" stroke="none" 
	d="
M100.099915,153.457916 
	C100.125610,151.536148 100.442505,149.974457 100.465637,148.408447 
	C100.595238,139.632797 100.634048,130.855835 100.748703,122.079910 
	C100.784271,119.356651 101.499062,117.060196 104.882523,117.065384 
	C110.806541,117.074463 116.730980,117.081856 122.653893,117.175606 
	C123.349899,117.186630 124.037392,117.736389 126.058289,118.613266 
	C122.455490,119.516220 120.156082,120.528549 117.830818,120.591858 
	C111.381470,120.767448 110.985481,121.230896 110.992760,129.112350 
	C110.993507,129.920578 111.059753,130.728745 111.111771,131.901260 
	C113.456482,132.130920 115.645332,132.345322 117.834190,132.559723 
	C117.934601,132.912628 118.035019,133.265533 118.135429,133.618439 
	C115.890434,134.546997 113.645439,135.475555 110.505516,136.774261 
	C110.505516,141.435654 110.505516,146.694717 110.446426,152.414490 
	C107.813545,156.929733 102.971550,157.379364 100.099915,153.457916 
z"/>
<path fill="#FFF6EE" opacity="1.000000" stroke="none" 
	d="
M155.923309,133.017105 
	C158.473969,130.932266 160.631927,128.851486 161.839951,125.393295 
	C163.013474,122.033936 165.019302,124.342911 166.524414,126.094414 
	C168.034866,127.852127 169.728134,130.659607 171.484711,130.772339 
	C176.725067,131.108658 177.579788,134.407547 178.302795,138.368500 
	C178.618958,140.100525 179.315125,141.763214 180.087662,144.262833 
	C182.002487,140.006042 183.557877,136.548279 185.113281,133.090515 
	C185.558197,133.265732 186.003128,133.440964 186.448044,133.616180 
	C184.828888,138.766922 183.353699,143.971237 181.472916,149.024612 
	C181.082092,150.074707 179.126648,151.241943 178.002533,151.139954 
	C176.643585,151.016678 175.166840,149.805481 174.183228,148.679047 
	C173.381180,147.760529 173.229523,146.274139 174.285202,146.800354 
	C171.565216,148.644318 168.845215,150.488281 165.873840,152.581543 
	C164.982147,152.853943 164.341827,152.877060 163.146820,152.617065 
	C161.390625,150.110062 160.231323,147.861786 158.967850,145.673676 
	C158.427612,144.738098 157.670273,143.927872 156.900757,142.863022 
	C156.618530,142.411835 156.406876,142.198181 156.287903,141.697540 
	C160.457657,135.556564 160.395889,134.519394 155.923309,133.017105 
M165.872086,143.298035 
	C165.872086,145.149323 165.872086,147.000626 165.872086,149.962723 
	C172.795135,143.808701 172.324524,137.706665 169.143936,129.574448 
	C167.727768,132.394165 166.481949,134.056915 166.073990,135.904648 
	C165.617050,137.974182 165.918747,140.211227 165.872086,143.298035 
z"/>
<path fill="#FFC084" opacity="1.000000" stroke="none" 
	d="
M245.296814,180.021378 
	C247.158447,181.566574 248.616211,183.128281 250.335327,184.969940 
	C251.818619,183.365097 251.085098,178.174408 255.861832,180.466232 
	C254.893356,183.346848 254.073593,186.290375 252.889969,189.079468 
	C252.404953,190.222321 250.917374,191.948837 250.267395,191.795258 
	C249.044098,191.506180 247.897583,190.183823 247.096863,189.029114 
	C246.401459,188.026306 246.227692,186.661804 245.771072,185.301254 
	C245.392944,185.714615 245.176987,185.884323 245.045746,186.104523 
	C243.880844,188.059189 242.730957,190.022797 241.576630,191.983780 
	C240.308868,190.128342 238.912125,188.345749 237.810989,186.396194 
	C236.784683,184.579178 236.072830,182.584564 235.202179,180.622208 
	C238.390701,180.127914 238.390701,180.127914 241.285980,185.119553 
	C242.411804,183.533432 243.652374,181.785645 245.296814,180.021378 
z"/>
<path fill="#FFC084" opacity="1.000000" stroke="none" 
	d="
M244.930771,217.792725 
	C243.894684,217.783478 242.801620,217.985809 242.050690,218.603867 
	C241.022934,219.449768 240.255127,220.611496 239.375916,221.637863 
	C238.994461,221.367645 238.613022,221.097427 238.231567,220.827209 
	C238.231567,217.061844 238.231567,213.296478 238.231567,209.263931 
	C242.386688,209.263931 246.461044,209.263931 251.093719,209.263931 
	C250.818115,212.987778 250.552414,216.577530 250.188339,221.496597 
	C248.402145,220.352295 246.714233,219.270950 244.930771,217.792725 
z"/>
<path fill="#FFC084" opacity="1.000000" stroke="none" 
	d="
M138.999680,213.626190 
	C138.700470,216.168915 138.401321,218.277832 137.957047,221.409912 
	C136.497513,220.481583 134.872253,219.224319 133.052582,218.392227 
	C132.239975,218.020645 130.829575,218.181290 130.060501,218.675812 
	C128.976440,219.372925 128.236038,220.604446 127.348686,221.607452 
	C126.973717,221.337006 126.598755,221.066544 126.223785,220.796097 
	C126.223785,217.034760 126.223785,213.273422 126.223785,209.254761 
	C130.264511,209.254761 134.207367,209.254761 138.734436,209.254761 
	C138.812653,210.415665 138.906189,211.804031 138.999680,213.626190 
z"/>
<path fill="#FFC084" opacity="1.000000" stroke="none" 
	d="
M91.996719,190.150146 
	C90.912071,191.178238 89.835037,191.775223 88.230789,192.664429 
	C88.230789,188.056229 88.230789,184.293854 88.230789,180.264130 
	C92.384026,180.264130 96.456161,180.264130 101.096313,180.264130 
	C100.814079,183.979156 100.541748,187.563828 100.187096,192.232071 
	C98.621513,191.410706 96.532860,190.890579 95.367020,189.561188 
	C93.823074,187.800613 93.024002,186.505920 91.996719,190.150146 
z"/>
<path fill="#FFC084" opacity="1.000000" stroke="none" 
	d="
M169.118164,208.999817 
	C171.552002,208.999786 173.524200,208.999786 175.717255,208.999786 
	C175.717255,210.478088 175.717255,211.676819 175.717255,212.782898 
	C172.704056,212.502014 169.943344,212.244659 167.182648,211.987305 
	C167.130386,212.551743 167.078125,213.116180 167.025864,213.680618 
	C169.767258,213.839722 172.508652,213.998825 175.629181,214.179932 
	C175.629181,216.144653 175.629181,218.209885 175.629181,220.990067 
	C172.517120,220.990067 169.112061,221.045166 165.711517,220.945740 
	C164.991379,220.924698 163.702164,220.389893 163.668762,220.005478 
	C163.392014,216.820053 163.009033,213.562241 163.485916,210.453278 
	C163.598129,209.721649 166.849350,209.471497 169.118164,208.999817 
z"/>
<path fill="#FFC084" opacity="1.000000" stroke="none" 
	d="
M63.999435,187.823395 
	C63.581818,189.513016 63.164238,190.738068 62.746658,191.963120 
	C61.896030,190.879593 61.045406,189.796082 59.787373,188.193604 
	C58.998169,188.193604 57.382137,188.193604 56.574242,188.193604 
	C54.914749,189.849731 53.584911,191.176895 51.557579,193.200119 
	C50.047276,179.896500 50.417870,179.540436 63.999470,180.191208 
	C63.999470,182.543442 63.999470,184.951141 63.999435,187.823395 
z"/>
<path fill="#FFC084" opacity="1.000000" stroke="none" 
	d="
M91.950821,219.864777 
	C90.745636,220.577774 89.581100,220.842072 88.390892,221.112198 
	C87.294296,206.329056 88.023369,208.995987 100.684891,209.219238 
	C100.684891,213.077606 100.684891,216.946243 100.684891,220.814880 
	C100.339233,220.992096 99.993576,221.169312 99.647926,221.346512 
	C98.860214,220.029739 98.072502,218.712952 96.625771,216.294510 
	C95.219955,217.241425 93.605713,218.328735 91.950821,219.864777 
z"/>
<path fill="#FFC084" opacity="1.000000" stroke="none" 
	d="
M24.000114,188.549210 
	C23.675447,187.618362 23.351282,187.085754 23.027119,186.553146 
	C22.077103,187.425461 21.127087,188.297775 20.018515,189.315674 
	C18.751520,188.176239 17.703016,187.233307 16.079826,185.773529 
	C16.079826,188.193466 16.079826,189.888367 16.079826,191.785553 
	C14.606061,191.785553 13.511509,191.785553 12.207436,191.785553 
	C12.207436,187.959839 12.207436,184.195908 12.207436,178.975540 
	C15.268686,180.615631 17.644865,181.888702 20.195044,183.254974 
	C21.626871,182.273804 23.799164,180.785217 26.806290,178.724548 
	C26.806290,183.979019 26.806290,187.750000 26.806290,191.520996 
	C26.370604,191.714737 25.934916,191.908478 25.499229,192.102219 
	C24.999691,191.050629 24.500154,189.999039 24.000114,188.549210 
z"/>
<path fill="#FFC084" opacity="1.000000" stroke="none" 
	d="
M175.999451,187.904068 
	C176.405426,191.042496 175.566177,192.316605 172.579086,192.055893 
	C169.628693,191.798401 166.638260,191.999634 162.999237,191.999634 
	C162.999237,189.914322 162.999237,188.000763 162.999237,186.087219 
	C162.999237,184.276413 162.999237,182.465607 162.999237,180.327835 
	C167.231079,180.327835 171.284698,180.327835 175.999481,180.327835 
	C175.999481,182.601593 175.999481,185.015518 175.999451,187.904068 
M170.461929,188.998444 
	C175.292328,188.498428 172.205338,185.302795 172.855469,183.296097 
	C170.683914,183.296097 168.947952,183.296097 166.590286,183.296097 
	C168.077850,185.356949 164.741821,188.926651 170.461929,188.998444 
z"/>
<path fill="#FFC083" opacity="1.000000" stroke="none" 
	d="
M55.111111,208.999985 
	C58.215576,208.999924 60.843136,208.999924 63.730934,208.999924 
	C63.730934,211.693222 63.730934,214.081360 63.730934,216.773376 
	C61.106457,216.773376 58.512058,216.773376 56.625771,216.773376 
	C54.925556,218.691589 53.652184,220.128235 52.378815,221.564880 
	C51.919518,221.296402 51.460217,221.027924 51.000919,220.759445 
	C51.000919,217.974075 51.203800,215.169769 50.946186,212.408432 
	C50.665691,209.401764 51.987961,208.602325 55.111111,208.999985 
z"/>
<path fill="#FFC084" opacity="1.000000" stroke="none" 
	d="
M209.934555,180.000092 
	C212.549927,179.822266 214.338440,179.842636 214.052750,182.945679 
	C213.796707,185.726791 213.998871,188.550095 213.998871,192.000168 
	C212.059189,192.000168 210.309891,191.999084 208.560577,192.000336 
	C200.863235,192.005859 199.361511,190.216507 201.121765,182.586777 
	C201.358688,181.559875 202.886536,180.388275 204.018143,180.113419 
	C205.741226,179.694931 207.640381,180.001389 209.934555,180.000092 
M205.008926,187.356705 
	C206.797440,188.075317 208.585953,188.793930 210.736237,189.657913 
	C210.736237,186.745209 210.736237,185.011902 210.736237,182.808716 
	C208.227081,183.611588 204.345444,181.122025 205.008926,187.356705 
z"/>
<path fill="#FFC084" opacity="1.000000" stroke="none" 
	d="
M211.626526,209.031830 
	C213.924026,210.957611 213.258560,211.879501 210.878754,211.979187 
	C208.963287,212.059433 207.041763,211.995438 205.122925,211.995438 
	C205.068909,212.509918 205.014893,213.024399 204.960876,213.538879 
	C206.354614,213.692734 207.793488,213.683701 209.127411,214.053391 
	C210.142578,214.334732 211.024445,215.097061 211.965637,215.645386 
	C211.091736,216.096741 210.260498,216.752365 209.332779,216.946228 
	C208.244629,217.173599 207.072571,216.999451 205.904587,217.425140 
	C208.350845,217.995926 210.797104,218.566711 213.243362,219.137497 
	C213.085800,219.682373 212.928238,220.227249 212.770676,220.772125 
	C209.018463,220.772125 205.266235,220.772125 201.254944,220.772125 
	C201.254944,216.945786 201.254944,213.217987 201.254944,209.006149 
	C204.614548,209.006149 207.890030,209.006149 211.626526,209.031830 
z"/>
<path fill="#FFC183" opacity="1.000000" stroke="none" 
	d="
M286.000977,182.659988 
	C286.632690,181.409485 287.263702,180.570892 287.894684,179.732285 
	C288.202026,179.922058 288.509369,180.111832 288.816711,180.301605 
	C288.816711,184.075821 288.816711,187.850021 288.816711,191.610794 
	C283.561554,193.765854 283.906708,187.206619 280.181793,186.451920 
	C280.181793,188.132767 280.181793,189.824814 280.181793,191.752563 
	C278.706146,191.840439 277.597137,191.906479 276.239807,191.987305 
	C276.239807,188.067307 276.239807,184.305939 276.239807,180.432297 
	C281.651550,177.884872 282.056519,184.889816 286.000275,185.609207 
	C286.000275,184.666931 286.000275,183.869415 286.000977,182.659988 
z"/>
<path fill="#FFC084" opacity="1.000000" stroke="none" 
	d="
M126.000267,185.071091 
	C126.000267,183.284973 126.000267,181.968185 126.000267,180.229126 
	C127.223999,180.150574 128.277466,180.082962 129.700729,179.991608 
	C129.880844,181.679138 130.046158,183.227936 130.248566,185.124390 
	C132.967819,183.058853 135.453979,181.170380 137.940125,179.281906 
	C138.333679,179.733749 138.727219,180.185593 139.120758,180.637436 
	C137.803741,182.569519 136.486725,184.501602 135.150681,186.461594 
	C136.517197,187.988586 137.815491,189.439331 139.113770,190.890076 
	C138.806381,191.388550 138.498978,191.887024 138.191589,192.385498 
	C135.738007,191.049133 133.284409,189.712784 130.929962,188.430420 
	C129.906876,189.683640 128.698334,191.164032 127.489784,192.644440 
	C126.993279,192.385834 126.496773,192.127213 126.000267,191.868607 
	C126.000267,189.759216 126.000267,187.649826 126.000267,185.071091 
z"/>
<path fill="#FF8917" opacity="1.000000" stroke="none" 
	d="
M210.976471,152.350464 
	C214.015564,150.195740 217.050018,148.204193 219.710846,146.457855 
	C220.542053,147.722427 222.060349,150.032318 223.807129,152.588074 
	C219.986237,152.888931 215.936890,152.943924 211.425262,152.919464 
	C210.962967,152.839996 210.971848,152.513641 210.976471,152.350464 
z"/>
<path fill="#FF8B1B" opacity="1.000000" stroke="none" 
	d="
M157.011581,143.060684 
	C157.670273,143.927872 158.427612,144.738098 158.967850,145.673676 
	C160.231323,147.861786 161.390625,150.110062 162.827057,152.583771 
	C161.068665,152.885651 159.075333,152.937744 156.656769,152.973068 
	C156.368362,149.839294 156.505219,146.722290 156.328979,143.304108 
	C156.015884,143.002899 155.968658,143.001831 156.215576,143.261292 
	C156.645508,143.367401 156.828537,143.214050 157.011581,143.060684 
z"/>
<path fill="#FF8919" opacity="1.000000" stroke="none" 
	d="
M155.670898,133.013885 
	C160.395889,134.519394 160.457657,135.556564 156.101334,141.915207 
	C155.844131,142.640442 155.906387,142.821136 155.968658,143.001831 
	C155.968658,143.001831 156.015884,143.002899 156.032822,142.986694 
	C151.123306,140.954498 148.975906,137.127365 150.930847,132.725052 
	C151.889893,134.480270 152.654449,135.879532 154.034485,138.405243 
	C154.449875,136.140305 154.662140,134.982941 154.894348,133.430695 
	C155.082367,133.027435 155.250427,133.019058 155.670898,133.013885 
z"/>
<path fill="#FF8611" opacity="1.000000" stroke="none" 
	d="
M196.676300,140.226349 
	C201.874222,143.400238 196.995682,144.873795 196.428284,146.998993 
	C195.866699,147.036835 195.305115,147.074677 194.743546,147.112518 
	C194.524994,144.664459 194.306442,142.216415 194.087891,139.768356 
	C194.842239,139.845535 195.596603,139.922714 196.676300,140.226349 
z"/>
<path fill="#FF8611" opacity="1.000000" stroke="none" 
	d="
M126.489929,145.575592 
	C124.424133,147.239273 122.722382,147.074432 123.031921,144.591858 
	C123.451180,141.229248 124.696114,137.969574 125.738853,134.101929 
	C130.825500,138.166916 130.806168,139.204208 126.489929,145.575592 
z"/>
<path fill="#FF820A" opacity="1.000000" stroke="none" 
	d="
M165.881195,142.836700 
	C165.918747,140.211227 165.617050,137.974182 166.073990,135.904648 
	C166.481949,134.056915 167.727768,132.394165 169.143936,129.574448 
	C172.324524,137.706665 172.795135,143.808701 165.872086,149.962723 
	C165.872086,147.000626 165.872086,145.149323 165.881195,142.836700 
z"/>
<path fill="#FFF7F0" opacity="1.000000" stroke="none" 
	d="
M156.215576,143.261292 
	C155.906387,142.821136 155.844131,142.640442 155.968414,142.242065 
	C156.406876,142.198181 156.618530,142.411835 156.900757,142.863022 
	C156.828537,143.214050 156.645508,143.367401 156.215576,143.261292 
z"/>
<path fill="#000000" opacity="1.000000" stroke="none" 
	d="
M170.002594,188.998474 
	C164.741821,188.926651 168.077850,185.356949 166.590286,183.296097 
	C168.947952,183.296097 170.683914,183.296097 172.855469,183.296097 
	C172.205338,185.302795 175.292328,188.498428 170.002594,188.998474 
z"/>
<path fill="#000000" opacity="1.000000" stroke="none" 
	d="
M205.005035,186.906372 
	C204.345444,181.122025 208.227081,183.611588 210.736237,182.808716 
	C210.736237,185.011902 210.736237,186.745209 210.736237,189.657913 
	C208.585953,188.793930 206.797440,188.075317 205.005035,186.906372 
z"/>
</svg>